<?xml version="1.0" encoding="utf-8"?>
<!-- Generator: Adobe Illustrator 16.0.0, SVG Export Plug-In . SVG Version: 6.00 Build 0)  -->
<!DOCTYPE svg PUBLIC "-//W3C//DTD SVG 1.1//EN" "http://www.w3.org/Graphics/SVG/1.1/DTD/svg11.dtd">
<svg version="1.1" id="Layer_1" xmlns="http://www.w3.org/2000/svg" xmlns:xlink="http://www.w3.org/1999/xlink" x="0px" y="0px"
	 width="100px" height="100px" viewBox="0 0 100 100" enable-background="new 0 0 100 100" xml:space="preserve">
<path fill="#E41513" d="M66.972,14.78c-6.757,0-12.949,3.121-16.973,8.361C45.976,17.9,39.783,14.78,33.024,14.78
	c-11.823,0-21.479,9.652-21.524,21.515c-0.044,12.767,6.129,20.294,11.092,26.346l1.064,1.299
	c5.875,7.244,24.09,20.255,24.862,20.806c0.441,0.316,0.963,0.475,1.482,0.475c0.52,0,1.041-0.159,1.484-0.475
	c0.771-0.551,18.984-13.562,24.86-20.806l1.063-1.299C82.37,56.589,88.545,49.062,88.5,36.295
	C88.454,24.433,78.797,14.78,66.972,14.78z"/>
</svg>
